<svg width="33" height="33" viewBox="0 0 33 33" fill="none" xmlns="http://www.w3.org/2000/svg">
<path fill-rule="evenodd" clip-rule="evenodd" d="M13.2 2.475C14.152 1.76098 15.31 1.375 16.5 1.375C17.69 1.375 18.848 1.76098 19.8 2.475L28.05 8.6625C29.4349 9.7012 30.25 11.3313 30.25 13.0625V26.125C30.25 28.4032 28.4032 30.25 26.125 30.25H6.875C4.59683 30.25 2.75 28.4032 2.75 26.125V13.0625C2.75 11.3313 3.56507 9.7012 4.95 8.6625L13.2 2.475ZM16.5 4.125C15.905 4.125 15.326 4.31799 14.85 4.675L6.6 10.8625C5.90753 11.3818 5.5 12.1969 5.5 13.0625V26.125C5.5 26.8844 6.11561 27.5 6.875 27.5H26.125C26.8844 27.5 27.5 26.8844 27.5 26.125V13.0625C27.5 12.1969 27.0925 11.3818 26.4 10.8625L18.15 4.675C17.674 4.31799 17.095 4.125 16.5 4.125ZM11.8475 17.9802C12.5488 17.6889 13.3534 18.0212 13.6448 18.7225C13.8007 19.0977 14.0297 19.437 14.3151 19.7218C14.8753 20.2811 15.6459 20.625 16.5 20.625C17.3541 20.625 18.1247 20.2811 18.6849 19.7218C18.9703 19.437 19.1993 19.0977 19.3552 18.7225C19.6466 18.0212 20.4512 17.6889 21.1525 17.9802C21.8538 18.2716 22.1861 19.0762 21.8948 19.7775C21.5982 20.4914 21.1646 21.1323 20.6277 21.6682C19.5724 22.7215 18.1111 23.375 16.5 23.375C14.8889 23.375 13.4276 22.7215 12.3723 21.6682C11.8354 21.1323 11.4018 20.4914 11.1052 19.7775C10.8139 19.0762 11.1462 18.2716 11.8475 17.9802Z" fill="#8F4528" stroke="#8F4528" stroke-linecap="round" stroke-linejoin="round"/>
</svg>
